<svg width="1280" height="640" viewBox="0 0 1280 640" fill="none" xmlns="http://www.w3.org/2000/svg" role="img" aria-label="ReviewPilot graphite banner">
  <defs>
    <linearGradient id="reviewpilot-banner-bg" x1="80" y1="40" x2="1200" y2="600" gradientUnits="userSpaceOnUse">
      <stop offset="0%" stop-color="#27272a" />
      <stop offset="100%" stop-color="#18181b" />
    </linearGradient>
    <radialGradient id="reviewpilot-banner-glow" cx="0" cy="0" r="1" gradientUnits="userSpaceOnUse" gradientTransform="translate(1000 150) rotate(135) scale(420 300)">
      <stop stop-color="#71717a" stop-opacity="0.18" />
      <stop offset="1" stop-color="#71717a" stop-opacity="0" />
    </radialGradient>
    <linearGradient id="reviewpilot-banner-route" x1="152" y1="410" x2="392" y2="160" gradientUnits="userSpaceOnUse">
      <stop offset="0%" stop-color="#a1a1aa" stop-opacity="0.35" />
      <stop offset="45%" stop-color="#d4d4d8" />
      <stop offset="100%" stop-color="#f4f4f5" />
    </linearGradient>
    <filter id="reviewpilot-banner-route-glow" x="-20%" y="-20%" width="140%" height="140%">
      <feGaussianBlur stdDeviation="3" result="blurred" />
      <feComposite in="SourceGraphic" in2="blurred" operator="over" />
    </filter>
  </defs>
  <rect x="24" y="24" width="1232" height="592" rx="48" fill="url(#reviewpilot-banner-bg)" />
  <rect x="24" y="24" width="1232" height="592" rx="48" fill="url(#reviewpilot-banner-glow)" />
  <rect x="24" y="24" width="1232" height="592" rx="48" fill="none" stroke="#3f3f46" stroke-width="2" />
  <g transform="translate(100 120)">
    <rect x="0" y="0" width="340" height="340" rx="72" fill="#1f1f23" />
    <rect x="0" y="0" width="340" height="340" rx="72" fill="none" stroke="#3f3f46" stroke-width="3" />
    <line x1="170" y1="0" x2="170" y2="340" stroke="#27272a" stroke-width="1.5" />
    <line x1="0" y1="170" x2="340" y2="170" stroke="#27272a" stroke-width="1.5" />
    <circle cx="170" cy="170" r="104" fill="none" stroke="#3f3f46" stroke-width="3" />
    <text x="170" y="42" text-anchor="middle" fill="#71717a" font-size="22" font-family="Inter, Segoe UI, Arial, sans-serif" font-weight="700">N</text>
    <text x="170" y="314" text-anchor="middle" fill="#3f3f46" font-size="22" font-family="Inter, Segoe UI, Arial, sans-serif" font-weight="700">S</text>
    <text x="314" y="178" text-anchor="middle" fill="#3f3f46" font-size="22" font-family="Inter, Segoe UI, Arial, sans-serif" font-weight="700">E</text>
    <text x="26" y="178" text-anchor="middle" fill="#3f3f46" font-size="22" font-family="Inter, Segoe UI, Arial, sans-serif" font-weight="700">W</text>
    <line x1="170" y1="68" x2="170" y2="90" stroke="#71717a" stroke-width="5" stroke-linecap="round" />
    <line x1="170" y1="250" x2="170" y2="272" stroke="#52525b" stroke-width="4" stroke-linecap="round" />
    <line x1="68" y1="170" x2="90" y2="170" stroke="#52525b" stroke-width="4" stroke-linecap="round" />
    <line x1="250" y1="170" x2="272" y2="170" stroke="#52525b" stroke-width="4" stroke-linecap="round" />
    <path d="M160 76L170 56L180 76Z" fill="#d4d4d8" opacity="0.7" />
    <path d="M72 266L116 214L158 228L178 158L210 178L258 116L304 82" stroke="url(#reviewpilot-banner-route)" stroke-width="8" stroke-linecap="round" stroke-linejoin="round" fill="none" filter="url(#reviewpilot-banner-route-glow)" />
    <circle cx="304" cy="82" r="10" fill="#e4e4e7" />
    <circle cx="304" cy="82" r="18" fill="none" stroke="#d4d4d8" stroke-width="3" opacity="0.35" />
  </g>
  <g transform="translate(520 186)">
    <text x="0" y="78" fill="#f4f4f5" font-size="94" font-family="Inter, Segoe UI, Arial, sans-serif" font-weight="700" letter-spacing="-2">ReviewPilot</text>
    <text x="6" y="138" fill="#71717a" font-size="28" font-family="Inter, Segoe UI, Arial, sans-serif" font-weight="600" letter-spacing="10">AI CODE REVIEW</text>
    <text x="0" y="214" fill="#d4d4d8" font-size="29" font-family="Inter, Segoe UI, Arial, sans-serif" font-weight="500">Deep review. Safe learning. Stronger feedback loops.</text>
    <text x="0" y="274" fill="#a1a1aa" font-size="24" font-family="Inter, Segoe UI, Arial, sans-serif">Codex-native review automation for serious bug hunting.</text>
  </g>
</svg>
